<svg width="167.634" height="86.054" viewBox="0 0 167.634 86.054" xmlns="http://www.w3.org/2000/svg"><g id="svgGroup" stroke-linecap="round" fill-rule="evenodd" font-size="9pt" stroke="#000" stroke-width="0.25mm" fill="#000" style="stroke:#000;stroke-width:0.25mm;fill:#000"><path d="M 135.279 20.754 L 132.879 24.254 L 134.779 24.454 A 39.362 39.362 0 0 1 136.947 24.761 Q 140.13 25.312 141.172 26.205 A 1.247 1.247 0 0 1 141.679 27.154 Q 141.679 28.254 136.229 34.004 A 753.713 753.713 0 0 0 134.951 35.355 Q 130.779 39.779 130.779 39.954 Q 130.779 40.219 132.96 39.393 A 53.638 53.638 0 0 0 133.579 39.154 Q 136.379 38.054 139.629 36.554 A 94.245 94.245 0 0 0 140.943 35.936 Q 143.097 34.901 143.879 34.354 Q 145.516 33.208 146.282 32.966 A 1.322 1.322 0 0 1 146.579 32.904 A 1.211 1.211 0 0 1 146.665 32.901 Q 147.332 32.901 148.838 33.549 A 21.902 21.902 0 0 1 149.079 33.654 Q 151.621 34.632 153.303 34.892 A 9.858 9.858 0 0 0 153.379 34.904 A 3.054 3.054 0 0 1 154.155 35.116 Q 155.039 35.501 155.244 36.451 A 2.585 2.585 0 0 1 155.279 36.654 A 2.612 2.612 0 0 1 155.308 36.958 Q 155.341 37.881 154.647 38.496 A 2.677 2.677 0 0 1 154.379 38.704 A 4.353 4.353 0 0 1 153.642 39.095 Q 152.856 39.432 151.631 39.708 A 25.346 25.346 0 0 1 150.379 39.954 A 11.904 11.904 0 0 0 147.257 41.017 A 16.156 16.156 0 0 0 144.979 42.404 A 26.028 26.028 0 0 1 143.017 43.698 Q 142.028 44.284 141.108 44.686 A 12.742 12.742 0 0 1 140.029 45.104 Q 137.779 45.854 135.979 48.154 A 29.897 29.897 0 0 0 135.475 48.852 Q 133.872 51.149 134.607 51.249 A 0.533 0.533 0 0 0 134.679 51.254 A 0.364 0.364 0 0 0 134.732 51.249 Q 134.825 51.235 135.003 51.178 A 5.488 5.488 0 0 0 135.079 51.154 A 3.003 3.003 0 0 1 135.316 51.137 Q 136.191 51.11 137.679 51.504 A 22.075 22.075 0 0 0 139.271 51.859 Q 140.363 52.063 141.629 52.204 A 8.648 8.648 0 0 1 143.022 52.468 Q 144.282 52.823 145.079 53.554 A 6.295 6.295 0 0 1 145.39 53.887 Q 145.879 54.452 145.879 54.804 A 1.072 1.072 0 0 1 145.841 55.056 Q 145.717 55.553 145.179 56.554 A 5.078 5.078 0 0 1 143.631 58.184 A 5.029 5.029 0 0 1 142.079 58.854 A 22.133 22.133 0 0 0 140.048 59.425 Q 139.019 59.765 137.891 60.23 A 40.398 40.398 0 0 0 137.129 60.554 A 33.117 33.117 0 0 0 135.704 61.213 Q 134.041 62.035 133.179 62.754 A 7.25 7.25 0 0 1 131.41 63.98 A 6.401 6.401 0 0 1 130.079 64.454 Q 129.064 64.744 127.84 65.506 A 16.932 16.932 0 0 0 126.879 66.154 A 33.563 33.563 0 0 0 125.924 66.876 Q 124.389 68.072 121.602 70.413 A 457.382 457.382 0 0 0 119.779 71.954 A 70.425 70.425 0 0 0 118.211 73.325 Q 115.36 75.901 115.104 76.877 A 0.701 0.701 0 0 0 115.079 77.054 A 2.448 2.448 0 0 0 115.092 77.319 Q 115.159 77.938 115.579 77.854 Q 116.179 77.854 118.679 76.354 Q 121.779 74.454 125.329 73.704 A 20.671 20.671 0 0 1 126.647 73.467 Q 129.214 73.097 130.813 73.631 A 4.83 4.83 0 0 1 130.879 73.654 A 11.573 11.573 0 0 0 132.336 74.143 Q 134.1 74.601 135.546 74.273 A 5.231 5.231 0 0 0 135.629 74.254 A 11.991 11.991 0 0 0 136.819 73.885 Q 138.854 73.154 142.379 71.354 Q 148.223 68.334 150.936 67.876 A 7.174 7.174 0 0 1 151.079 67.854 A 23.757 23.757 0 0 0 152.164 67.669 Q 153.707 67.367 154.32 66.971 A 1.463 1.463 0 0 0 154.479 66.854 A 0.583 0.583 0 0 1 154.667 66.777 Q 155.475 66.584 158.279 67.504 Q 161.479 68.554 164.479 70.154 Q 169.015 72.47 167.03 75.532 A 5.592 5.592 0 0 1 166.879 75.754 A 7.733 7.733 0 0 1 164.193 77.983 Q 161.527 79.388 157.079 79.754 A 32.212 32.212 0 0 1 156.367 79.808 Q 150.547 80.184 152.799 77.648 A 6.341 6.341 0 0 1 152.979 77.454 A 16.314 16.314 0 0 0 154.148 76.218 Q 155.245 74.918 155.594 73.801 A 3.639 3.639 0 0 0 155.729 73.204 Q 155.979 71.354 153.879 70.654 Q 152.379 70.254 150.129 70.804 A 9.621 9.621 0 0 0 148.747 71.247 Q 148.051 71.534 147.515 71.911 A 4.551 4.551 0 0 0 146.779 72.554 Q 145.479 73.954 140.679 78.654 Q 136.379 82.854 134.429 83.304 A 2.493 2.493 0 0 1 133.866 83.368 Q 132.307 83.368 130.594 81.426 A 12.456 12.456 0 0 1 130.279 81.054 A 16.812 16.812 0 0 0 129.513 80.148 Q 128.147 78.654 127.279 78.654 Q 126.179 78.654 119.679 81.704 A 186.403 186.403 0 0 0 118.149 82.43 Q 114.197 84.328 113.139 85.112 A 1.376 1.376 0 0 0 112.779 85.454 A 1.271 1.271 0 0 1 112.332 85.783 Q 111.897 85.987 111.18 86.037 A 7.159 7.159 0 0 1 110.679 86.054 A 3.737 3.737 0 0 1 110.214 86.027 Q 109.509 85.939 109.279 85.554 Q 109.034 85.147 108.79 83.744 A 29.729 29.729 0 0 1 108.679 83.054 A 18.777 18.777 0 0 1 108.569 82.194 Q 108.424 80.784 108.579 79.854 A 4.923 4.923 0 0 1 108.77 79.115 Q 109.134 78.025 110.079 76.354 Q 112.179 72.754 115.879 69.954 A 132.462 132.462 0 0 0 119.107 67.406 Q 125.748 61.979 125.748 60.102 A 0.838 0.838 0 0 0 125.679 59.754 Q 124.779 57.554 124.729 55.204 Q 124.679 52.854 125.479 52.254 Q 126.779 51.354 128.229 50.104 Q 129.339 49.147 130.127 48.336 A 17.263 17.263 0 0 0 130.579 47.854 A 10.104 10.104 0 0 0 130.829 47.566 Q 131.448 46.823 131.279 46.654 Q 130.613 45.988 119.096 53.461 A 441.366 441.366 0 0 0 117.879 54.254 Q 113.28 57.269 110.471 58.807 A 32.342 32.342 0 0 1 108.829 59.654 Q 105.879 61.054 101.479 61.854 Q 97.35 62.662 95.437 62.181 A 3.71 3.71 0 0 1 95.029 62.054 A 2.66 2.66 0 0 1 93.35 60.162 Q 93.179 59.546 93.179 58.754 A 9.448 9.448 0 0 1 93.207 57.987 Q 93.309 56.749 93.767 56.314 A 0.954 0.954 0 0 1 93.779 56.304 A 2.474 2.474 0 0 1 94.138 56.045 Q 95.069 55.469 97.779 54.354 A 456.939 456.939 0 0 0 102.07 52.53 Q 110.296 48.981 112.247 47.647 A 5.604 5.604 0 0 0 112.379 47.554 L 117.079 44.154 Q 119.379 42.354 120.029 41.104 Q 120.536 40.127 120.22 38.998 A 4.211 4.211 0 0 0 119.979 38.354 A 50.345 50.345 0 0 1 119.282 37.051 Q 117.927 34.42 117.927 33.459 A 1.265 1.265 0 0 1 117.929 33.404 A 2.154 2.154 0 0 1 118.077 32.772 Q 118.439 31.792 119.68 30.041 A 42.446 42.446 0 0 1 120.479 28.954 A 39.883 39.883 0 0 0 121.081 28.088 Q 122.375 26.171 122.244 25.742 A 0.193 0.193 0 0 0 122.229 25.704 A 0.198 0.198 0 0 0 122.113 25.619 Q 121.518 25.416 118.279 26.554 A 29.759 29.759 0 0 1 115.431 27.365 Q 113.169 27.898 110.379 28.254 Q 105.679 28.854 104.779 28.254 Q 104.479 28.054 106.179 26.954 Q 107.786 25.959 110.567 24.494 A 179.439 179.439 0 0 1 112.379 23.554 A 250.738 250.738 0 0 0 119.191 20.068 Q 122.821 18.137 125.929 16.304 Q 131.61 12.953 132.34 11.725 A 1.121 1.121 0 0 0 132.379 11.654 Q 132.93 10.735 135.888 10.956 A 20.494 20.494 0 0 1 136.429 11.004 A 15.958 15.958 0 0 1 137.962 11.229 Q 139.488 11.536 140.355 12.11 A 2.924 2.924 0 0 1 140.979 12.654 A 4.43 4.43 0 0 1 141.228 12.923 Q 141.744 13.533 141.579 13.904 A 1.244 1.244 0 0 1 141.433 14.136 Q 141.149 14.511 140.41 15.183 A 29.796 29.796 0 0 1 139.879 15.654 A 19.404 19.404 0 0 0 138.201 17.215 Q 137.334 18.115 136.439 19.232 A 40.933 40.933 0 0 0 135.279 20.754 Z M 54.729 12.354 A 4.546 4.546 0 0 0 54.341 12.585 Q 53.103 13.4 50.379 15.954 A 70.794 70.794 0 0 0 48.073 18.311 Q 45.26 21.331 43.629 23.904 Q 41.379 27.454 41.179 27.454 A 0.076 0.076 0 0 1 41.17 27.453 Q 40.935 27.426 38.779 26.054 A 23.748 23.748 0 0 0 38.257 25.737 Q 36.299 24.582 35.679 24.804 Q 34.979 25.054 34.979 27.354 A 9.665 9.665 0 0 1 34.924 28.396 A 7.482 7.482 0 0 1 33.479 32.154 A 31.415 31.415 0 0 0 33.364 32.316 Q 32.668 33.303 32.519 33.689 A 0.495 0.495 0 0 0 32.479 33.854 A 0.212 0.212 0 0 0 32.537 34.009 Q 32.912 34.391 35.679 33.354 A 36.156 36.156 0 0 1 36.277 33.086 Q 37.686 32.471 38.434 32.31 A 2.184 2.184 0 0 1 38.879 32.254 A 0.621 0.621 0 0 1 39.031 32.399 Q 39.766 33.375 38.014 38.114 A 60.896 60.896 0 0 1 37.379 39.754 Q 37.079 40.654 36.779 41.204 A 7.356 7.356 0 0 1 36.721 41.307 Q 36.547 41.615 36.39 41.818 A 1.942 1.942 0 0 1 36.229 42.004 Q 35.979 42.254 35.779 42.204 Q 35.579 42.154 35.379 41.954 Q 34.613 41.341 34.199 41.198 A 0.688 0.688 0 0 0 33.979 41.154 A 0.707 0.707 0 0 0 33.589 41.415 Q 33.031 42.094 32.879 44.454 Q 32.779 52.554 30.379 57.754 Q 29.526 59.364 29.526 60.077 A 1.074 1.074 0 0 0 29.529 60.154 A 1.322 1.322 0 0 0 29.591 60.45 Q 29.832 61.216 30.979 62.854 A 25.006 25.006 0 0 0 31.231 63.239 Q 32.398 64.982 33.3 65.646 A 2.221 2.221 0 0 0 33.979 66.004 A 2.18 2.18 0 0 1 34.693 66.389 Q 35.31 66.867 35.976 67.863 A 14.83 14.83 0 0 1 36.579 68.854 A 13.824 13.824 0 0 0 38.086 71.163 A 8.063 8.063 0 0 0 44.579 74.354 A 8.913 8.913 0 0 0 45.395 74.281 Q 47.75 73.968 51.429 72.404 Q 55.779 70.554 57.379 68.854 A 6.056 6.056 0 0 1 58.343 68.061 Q 59.458 67.332 60.697 67.35 A 4.446 4.446 0 0 1 61.579 67.454 A 5.563 5.563 0 0 1 61.843 67.518 Q 64.162 68.143 68.979 71.354 Q 69.379 71.754 70.179 72.154 Q 75.216 75.648 76.92 76.666 A 8.14 8.14 0 0 0 77.529 77.004 A 2.487 2.487 0 0 0 77.931 77.157 Q 78.839 77.411 79.579 76.754 A 0.497 0.497 0 0 0 79.61 76.719 Q 79.679 76.637 79.679 76.554 Q 81.079 75.254 80.779 73.104 A 6.662 6.662 0 0 0 80.292 71.366 A 7.339 7.339 0 0 0 78.879 69.254 Q 76.979 67.154 71.429 63.904 A 21980.442 21980.442 0 0 1 70.099 63.125 Q 66.456 60.992 65.774 60.59 A 28.315 28.315 0 0 1 65.629 60.504 Q 65.405 60.37 66.577 57.167 A 108.054 108.054 0 0 1 66.879 56.354 A 46.475 46.475 0 0 0 66.925 56.217 Q 68.383 51.895 68.679 48.204 A 24.657 24.657 0 0 0 68.735 47.3 Q 68.866 44.254 68.079 42.854 Q 67.649 42.19 67.158 41.785 A 2.582 2.582 0 0 0 65.479 41.154 A 2.797 2.797 0 0 1 65.111 41.127 Q 64.6 41.059 63.885 40.816 A 14.242 14.242 0 0 1 63.179 40.554 A 22.62 22.62 0 0 1 62.706 40.359 Q 61.563 39.871 60.979 39.454 A 0.029 0.029 0 0 1 60.965 39.438 Q 60.868 39.214 62.199 36.204 A 144.708 144.708 0 0 1 62.579 35.354 Q 63.879 32.554 63.929 31.854 A 1.165 1.165 0 0 0 63.932 31.771 Q 63.932 31.284 63.534 30.704 A 4.569 4.569 0 0 0 63.179 30.254 A 3.138 3.138 0 0 0 62.857 29.953 Q 61.503 28.854 58.579 28.854 Q 57.379 28.854 56.829 28.804 A 5.19 5.19 0 0 1 56.721 28.793 Q 56.239 28.739 55.879 28.604 A 1.561 1.561 0 0 1 55.753 28.551 Q 55.605 28.48 55.537 28.399 A 0.223 0.223 0 0 1 55.479 28.254 A 1.081 1.081 0 0 1 55.483 28.161 Q 55.5 27.97 55.579 27.654 A 8.685 8.685 0 0 0 55.744 27.304 Q 55.964 26.812 56.039 26.449 A 1.71 1.71 0 0 0 56.079 26.104 A 0.205 0.205 0 0 1 56.079 26.095 Q 56.099 25.592 58.529 21.964 A 174.729 174.729 0 0 1 59.279 20.854 Q 62.479 16.154 62.979 15.954 A 0.819 0.819 0 0 0 63.405 15.6 Q 63.693 15.121 63.529 14.104 A 6.331 6.331 0 0 0 63.491 13.894 Q 63.223 12.526 62.479 12.154 A 3.339 3.339 0 0 0 62.415 12.133 Q 61.499 11.848 59.511 11.777 A 40.385 40.385 0 0 0 58.079 11.754 Q 56.635 11.754 55.643 12.012 A 4.345 4.345 0 0 0 54.729 12.354 Z M 10.479 16.904 A 2.043 2.043 0 0 0 10.249 17.025 Q 9.429 17.517 7.779 19.254 A 23.216 23.216 0 0 1 6.808 20.174 Q 5.267 21.546 4.229 21.854 A 2.464 2.464 0 0 1 4.071 21.895 Q 3.13 22.107 2.364 21.467 A 3.237 3.237 0 0 1 1.879 20.954 Q 1.307 20.239 0.888 20.035 A 0.713 0.713 0 0 0 0.579 19.954 Q -0.321 19.854 0.179 24.254 A 48.959 48.959 0 0 1 0.28 25.847 Q 0.432 28.899 0.495 34.884 A 770.274 770.274 0 0 1 0.529 39.654 Q 0.569 49.241 0.379 52.755 A 22.481 22.481 0 0 1 0.279 54.054 A 13.161 13.161 0 0 0 0.224 54.514 Q 0.092 55.819 0.343 56.36 A 0.69 0.69 0 0 0 0.579 56.654 A 1.038 1.038 0 0 1 0.681 56.731 Q 1.179 57.161 1.179 58.254 A 3.862 3.862 0 0 0 1.219 58.796 Q 1.362 59.806 2.015 61.143 A 17.867 17.867 0 0 0 2.729 62.454 Q 3.879 64.384 4.671 64.881 A 0.971 0.971 0 0 0 5.179 65.054 Q 6.379 65.054 8.079 63.054 A 20.516 20.516 0 0 1 8.653 62.405 Q 9.547 61.439 10.096 61.164 A 0.88 0.88 0 0 1 10.479 61.054 Q 11.047 61.054 12.243 62.605 A 22.343 22.343 0 0 1 12.829 63.404 A 20.686 20.686 0 0 0 13.307 64.059 Q 14.599 65.754 15.279 65.754 Q 16.079 65.754 16.529 65.354 A 0.817 0.817 0 0 0 16.592 65.291 Q 16.901 64.949 17.11 64.027 A 10.188 10.188 0 0 0 17.229 63.404 A 18.892 18.892 0 0 0 17.371 62.295 Q 17.432 61.695 17.471 61.003 A 43.878 43.878 0 0 0 17.529 59.454 A 162.935 162.935 0 0 0 17.549 58.208 Q 17.579 55.976 17.579 52.454 A 188.801 188.801 0 0 1 17.651 47.015 Q 17.874 39.323 18.779 35.554 Q 19.191 33.285 19.344 31.631 A 20.741 20.741 0 0 0 19.429 30.254 Q 19.467 28.708 19.178 25.969 A 91.227 91.227 0 0 0 18.979 24.254 A 92.839 92.839 0 0 0 18.791 22.996 Q 18.173 19.063 17.605 18.017 A 0.744 0.744 0 0 0 17.279 17.654 A 4.839 4.839 0 0 0 16.871 17.526 Q 16.111 17.318 14.526 17.034 A 91.012 91.012 0 0 0 13.479 16.854 Q 11.704 16.612 10.841 16.793 A 1.854 1.854 0 0 0 10.479 16.904 Z M 24.303 29.621 A 304.466 304.466 0 0 0 24.179 31.754 A 1719.354 1719.354 0 0 1 23.779 39.527 Q 22.884 56.138 22.168 62.126 A 27.962 27.962 0 0 1 21.779 64.654 Q 21.279 66.754 21.979 69.404 Q 22.679 72.054 24.079 72.754 A 2.42 2.42 0 0 0 24.495 72.939 Q 24.837 73.052 25.165 73.027 A 1.636 1.636 0 0 0 25.779 72.854 A 2.616 2.616 0 0 0 25.994 72.778 Q 26.97 72.381 25.879 71.654 A 0.766 0.766 0 0 1 25.596 71.289 Q 25.433 70.844 25.75 70.084 A 5.149 5.149 0 0 1 25.929 69.704 A 0.814 0.814 0 0 0 25.933 69.695 Q 26.68 68.209 27.029 52.804 Q 27.379 37.354 28.279 33.454 Q 29.273 29.567 29.205 27.846 A 4.233 4.233 0 0 0 29.179 27.504 A 3.996 3.996 0 0 0 29.028 26.8 Q 28.806 26.087 28.313 25.403 A 7.302 7.302 0 0 0 27.379 24.354 Q 25.579 22.654 25.129 22.654 A 0.085 0.085 0 0 0 25.065 22.699 Q 24.7 23.214 24.303 29.621 Z M 52.443 18.005 A 18.08 18.08 0 0 0 52.129 18.154 A 19.382 19.382 0 0 0 51.61 18.414 Q 50.479 19.005 50.479 19.254 Q 50.479 19.954 49.579 19.954 Q 47.995 19.954 45.805 23.293 A 26.241 26.241 0 0 0 45.479 23.804 Q 43.079 27.654 42.279 31.954 Q 41.779 34.754 39.779 44.254 A 516.195 516.195 0 0 0 39.353 46.297 Q 37.868 53.491 37.967 54.248 A 0.266 0.266 0 0 0 37.979 54.304 Q 38.179 54.854 40.729 54.554 A 1186.854 1186.854 0 0 1 41.613 54.45 Q 43.06 54.281 43.592 54.223 A 24.254 24.254 0 0 1 43.779 54.204 A 0.318 0.318 0 0 0 44.012 54.028 Q 44.27 53.602 44.278 52.154 A 17.031 17.031 0 0 0 44.279 52.054 A 4.165 4.165 0 0 1 44.377 51.11 Q 44.676 49.83 45.879 49.454 Q 47.015 49.048 49.634 45.842 A 70.547 70.547 0 0 0 50.929 44.204 Q 53.881 40.361 55.165 37.795 A 14.042 14.042 0 0 0 55.679 36.654 Q 56.445 34.834 56.202 34.482 A 0.202 0.202 0 0 0 56.179 34.454 A 0.207 0.207 0 0 0 56.059 34.397 Q 55.654 34.337 54.395 35.303 A 17.687 17.687 0 0 0 54.329 35.354 Q 52.877 36.478 52.127 36.242 A 0.799 0.799 0 0 1 52.029 36.204 A 1.09 1.09 0 0 1 51.613 35.837 Q 51.205 35.27 50.997 33.97 A 11.462 11.462 0 0 1 50.979 33.854 Q 50.584 32.176 52.04 27.333 A 60.301 60.301 0 0 1 52.079 27.204 A 54.708 54.708 0 0 1 52.721 25.213 Q 53.841 21.969 54.779 20.954 Q 55.379 20.354 55.379 18.804 Q 55.379 17.254 54.779 17.254 Q 53.876 17.344 52.443 18.005 Z M 123.979 0.554 Q 125.079 -0.046 125.829 0.004 A 1.838 1.838 0 0 1 126.352 0.126 Q 126.83 0.306 127.415 0.747 A 8.331 8.331 0 0 1 127.679 0.954 A 7.413 7.413 0 0 0 128.504 1.47 Q 128.93 1.697 129.325 1.817 A 2.925 2.925 0 0 0 130.179 1.954 A 2.272 2.272 0 0 1 131.114 2.176 Q 131.849 2.508 132.689 3.338 A 11.575 11.575 0 0 1 133.179 3.854 Q 134.532 5.367 134.808 6.499 A 2.344 2.344 0 0 1 134.879 7.054 A 2.937 2.937 0 0 1 134.743 7.971 A 2.274 2.274 0 0 1 133.679 9.254 A 5.394 5.394 0 0 1 132.973 9.587 Q 131.588 10.141 128.679 10.754 Q 125.606 11.437 123.626 12.01 A 37.167 37.167 0 0 0 122.979 12.204 Q 121.042 12.803 120.764 12.637 A 0.099 0.099 0 0 1 120.729 12.604 Q 120.586 12.366 123.333 9.6 A 122.087 122.087 0 0 1 123.629 9.304 Q 126.679 6.254 126.679 5.404 Q 126.679 4.635 125.122 3.251 A 16.947 16.947 0 0 0 124.779 2.954 Q 123.857 1.94 123.615 1.436 A 1.338 1.338 0 0 1 123.579 1.354 Q 123.406 0.922 123.83 0.639 A 1.384 1.384 0 0 1 123.979 0.554 Z M 45.379 58.054 A 19.304 19.304 0 0 0 42.858 57.521 A 25.192 25.192 0 0 0 40.679 57.304 A 19.955 19.955 0 0 0 40.302 57.286 Q 38.33 57.209 37.952 57.631 A 0.349 0.349 0 0 0 37.879 57.754 Q 36.908 59.165 38.351 62.601 A 22.32 22.32 0 0 0 38.779 63.554 A 21.313 21.313 0 0 0 39.654 65.214 Q 40.615 66.845 41.577 67.62 A 3.153 3.153 0 0 0 42.779 68.254 Q 44.779 68.754 49.029 66.254 A 26.061 26.061 0 0 0 50.473 65.344 Q 52.717 63.817 53.166 62.628 A 1.622 1.622 0 0 0 53.279 62.054 Q 53.279 61.487 50.962 60.297 A 29.145 29.145 0 0 0 50.679 60.154 Q 48.079 58.854 45.379 58.054 Z M 28.479 12.254 Q 31.179 10.254 32.679 9.604 Q 34.179 8.954 35.879 8.954 A 11.653 11.653 0 0 1 36.897 8.995 Q 39.417 9.217 39.079 10.654 A 2.644 2.644 0 0 1 38.469 11.934 Q 37.344 13.321 34.211 14.709 A 30.098 30.098 0 0 1 33.879 14.854 Q 30.879 16.054 27.779 16.354 A 40.943 40.943 0 0 1 27.071 16.421 Q 23.879 16.692 23.879 16.104 A 0.633 0.633 0 0 1 24.04 15.77 Q 24.741 14.854 28.479 12.254 Z M 61.779 49.154 Q 61.879 48.354 61.929 47.554 Q 61.979 46.754 61.979 46.354 Q 61.979 45.986 61.894 45.956 A 0.046 0.046 0 0 0 61.879 45.954 A 1.043 1.043 0 0 0 61.514 46.073 Q 60.344 46.619 56.079 49.654 A 157.73 157.73 0 0 0 54.858 50.53 Q 50.923 53.388 50.782 53.938 A 0.185 0.185 0 0 0 50.779 53.954 Q 50.479 54.454 52.529 55.554 A 21.199 21.199 0 0 0 55.56 56.877 A 25.12 25.12 0 0 0 57.079 57.354 A 1.4 1.4 0 0 0 57.465 57.409 Q 58.672 57.409 59.879 55.254 Q 61.191 52.91 61.713 49.6 A 24.714 24.714 0 0 0 61.779 49.154 Z M 11.738 25.821 A 0.557 0.557 0 0 0 11.729 25.804 A 0.513 0.513 0 0 0 11.405 25.573 Q 10.661 25.374 8.579 26.454 A 7.261 7.261 0 0 0 7.95 26.839 Q 6.649 27.738 6.979 28.604 A 3.292 3.292 0 0 1 7.125 29.198 Q 7.379 30.69 7.379 34.754 A 85.896 85.896 0 0 0 7.387 36.034 Q 7.426 38.576 7.629 39.104 Q 7.866 39.72 8.957 39.752 A 4.165 4.165 0 0 0 9.079 39.754 Q 9.893 39.754 10.384 39.482 A 1.347 1.347 0 0 0 11.029 38.704 Q 11.379 37.654 11.879 31.754 Q 12.175 26.611 11.738 25.821 Z M 11.379 47.254 A 30.473 30.473 0 0 0 11.295 46.283 Q 11.143 44.817 10.895 44.206 A 1.18 1.18 0 0 0 10.729 43.904 A 0.768 0.768 0 0 0 10.427 43.69 Q 9.898 43.465 8.721 43.596 A 11.575 11.575 0 0 0 8.279 43.654 Q 7.179 43.954 6.929 44.654 Q 6.679 45.354 6.679 48.854 Q 6.679 52.835 7.141 54.308 A 2.325 2.325 0 0 0 7.379 54.854 A 15.174 15.174 0 0 0 7.497 55.018 Q 7.891 55.554 7.979 55.554 A 0.058 0.058 0 0 0 8.022 55.522 Q 8.086 55.425 8.15 55.043 A 8.08 8.08 0 0 0 8.179 54.854 Q 8.179 53.754 8.079 52.854 A 0.879 0.879 0 0 1 8.06 52.757 Q 8.016 52.429 8.279 52.254 Q 8.565 52.063 8.941 52.236 A 1.225 1.225 0 0 1 8.979 52.254 Q 10.253 52.744 10.854 51.505 A 2.868 2.868 0 0 0 10.879 51.454 A 4.351 4.351 0 0 0 11.15 50.643 Q 11.422 49.501 11.389 47.66 A 24.595 24.595 0 0 0 11.379 47.254 Z"/></g></svg>